# xmcd
#
# Track frame offsets: 
#        150
#        11809
#        21171
#        30402
#        42709
#        55449
#        68189
#        80432
#        104802
#        121441
#        138475
#        155509
#        171039
#        173995
#        186530
#        209540
#        222280
#        235020
#        247720
#        259968
#        272216
#        279855
#        284351
#        296508
#        309578
#        322648
#        335718
#
# Disc length: 4648 seconds
#
# Revision: 0
# Processed by: cddbd v1.5.2PL0 Copyright (c) Steve Scherf et al.
# Submitted via: ExactAudioCopy v0.95b3
#
DISCID=9f12261b
DTITLE=The Beatles  - The Sgt Pepper Recording Sessions Reconstructed 
DTITLE=Outtakes and Outfakes - D 5
DYEAR=1900
DGENRE=
TTITLE0=SGT PEPPERS LONELY HEARTS CLUB BAND     SI onto take 10
TTITLE1=SGT PEPPERS LONELY HEARTS CLUB BAND    Mono mix
TTITLE2=SGT PEPPERS LONELY HEARTS CLUB BAND    Stereo mix
TTITLE3=LOVELY RITA    SI onto take 11
TTITLE4=GETTING BETTER    Take 7
TTITLE5=GETTING BETTER    SI onto take 12
TTITLE6=GOOD MORNING GOOD MORNING    SI onto take 10
TTITLE7=WITHIN YOU WITHOUT YOU    Take 1
TTITLE8=SHE'S LEAVING HOME   Take 1
TTITLE9=SHE'S LEAVING HOME    SI onto take 9
TTITLE10=SHE'S LEAVING HOME    SI onto take 9
TTITLE11=SHE'S LEAVING HOME    Mono mix
TTITLE12=LOVELY RITA     SI onto take 11
TTITLE13=LOVELY RITA     Mono mix
TTITLE14=WITHIN YOU WITHOUT YOU    SI onto take 1
TTITLE15=GETTING BETTER    SI onto take 14
TTITLE16=GETTING BETTER    SI onto take 15
TTITLE17=GETTING BETTER    Mono mix
TTITLE18=GOOD MORNING GOOD MORNING     SI onto take 10
TTITLE19=GOOD MORNING GOOD MORNING     SI onto take 11
TTITLE20=GOOD MORNING GOOD MORNING     Sound effects
TTITLE21=BEING FOR THE BENEFIT OF MR KITE    SI onto take 9
TTITLE22=BEING FOR THE BENEFIT OF MR KITE    SI onto take 9
TTITLE23=WITH A LITTLE HELP FROM MY FRIENDS     Take 10
TTITLE24=WITH A LITTLE HELP FROM MY FRIENDS     SI onto take 11
TTITLE25=WITH A LITTLE HELP FROM MY FRIENDS     SI onto take 11
TTITLE26=WITH A LITTLE HELP FROM MY FRIENDS     SI onto take 11
EXTD=
EXTT0=
EXTT1=
EXTT2=
EXTT3=
EXTT4=
EXTT5=
EXTT6=
EXTT7=
EXTT8=
EXTT9=
EXTT10=
EXTT11=
EXTT12=
EXTT13=
EXTT14=
EXTT15=
EXTT16=
EXTT17=
EXTT18=
EXTT19=
EXTT20=
EXTT21=
EXTT22=
EXTT23=
EXTT24=
EXTT25=
EXTT26=
PLAYORDER=
